<svg width="183" height="57" viewBox="0 0 183 57" fill="none" xmlns="http://www.w3.org/2000/svg">
<g id="Vector" opacity="0.8">
<path d="M32.6477 18.5568C32.6619 16.071 34.1391 14.5937 36.3409 14.5937C38.571 14.5937 39.8636 16.0283 39.8494 18.4573V30.9999H46.7954V17.0937C46.8096 12.1505 43.7982 8.89766 39.2102 8.89766C35.9431 8.89766 33.642 10.5028 32.6619 13.1874H32.4204V1.90903H25.7016V30.9999H32.6477V18.5568Z" fill="#C11616"/>
<path d="M51.1313 30.9999H58.0774V9.18175H51.1313V30.9999ZM54.6114 6.63914C56.5859 6.63914 58.1768 5.14766 58.1768 3.31528C58.1768 1.48289 56.5859 0.00561523 54.6114 0.00561523C52.6512 0.00561523 51.0461 1.48289 51.0461 3.31528C51.0461 5.14766 52.6512 6.63914 54.6114 6.63914Z" fill="#C11616"/>
<path d="M81.5468 15.8437C81.1775 11.5255 77.6406 8.89766 71.7315 8.89766C65.8224 8.89766 62.0582 11.4687 62.0866 15.8437C62.0582 19.196 64.2031 21.355 68.5639 22.1647L72.3707 22.8891C74.1747 23.2443 74.9985 23.8124 75.0269 24.7783C74.9985 25.8721 73.7769 26.5965 72.0014 26.5965C70.0269 26.5965 68.6917 25.7443 68.3934 24.1533L61.5326 24.3238C62.0298 28.642 65.7372 31.4119 71.973 31.4119C77.811 31.4119 82.0582 28.4999 82.0866 24.0113C82.0582 20.8295 79.9559 18.9403 75.6093 18.1022L71.4048 17.3068C69.5582 16.9374 68.9616 16.284 68.9758 15.446C68.9616 14.338 70.2542 13.6562 71.8593 13.6562C73.6917 13.6562 74.9701 14.6363 75.169 16.0141L81.5468 15.8437Z" fill="#C11616"/>
<path d="M97.8217 9.18175H93.887V3.95448H86.941V9.18175H84.0575V14.2954H86.941V24.9062C86.8984 29.3238 89.7677 31.5397 94.6683 31.3124C96.3444 31.2272 97.5518 30.8863 98.2194 30.6874L97.1683 25.6732C96.87 25.7443 96.1739 25.8863 95.6484 25.8863C94.5262 25.8863 93.887 25.4318 93.887 24.1391V14.2954H97.8217V9.18175Z" fill="#C11616"/>
<path d="M111.316 31.4119C118.177 31.4119 122.339 26.8806 122.339 20.1619C122.339 13.4289 118.177 8.89766 111.316 8.89766C104.455 8.89766 100.293 13.4289 100.293 20.1619C100.293 26.8806 104.455 31.4119 111.316 31.4119ZM111.359 26.1704C108.788 26.1704 107.367 23.7272 107.367 20.1193C107.367 16.4971 108.788 14.0397 111.359 14.0397C113.844 14.0397 115.265 16.4971 115.265 20.1193C115.265 23.7272 113.844 26.1704 111.359 26.1704ZM108.915 6.41187H113.646L117.935 0.00561523H111.785L108.915 6.41187Z" fill="#C11616"/>
<path d="M125.897 30.9999H132.843V19.1533C132.843 16.5539 134.69 14.8068 137.175 14.8068C137.999 14.8068 139.235 14.9488 139.903 15.1761V9.13914C139.32 8.98289 138.596 8.88346 137.957 8.88346C135.57 8.88346 133.667 10.2755 132.871 13.159H132.644V9.18175H125.897V30.9999Z" fill="#C11616"/>
<path d="M142.733 30.9999H149.679V9.18175H142.733V30.9999ZM146.213 6.63914C148.187 6.63914 149.778 5.14766 149.778 3.31528C149.778 1.48289 148.187 0.00561523 146.213 0.00561523C144.253 0.00561523 142.648 1.48289 142.648 3.31528C142.648 5.14766 144.253 6.63914 146.213 6.63914Z" fill="#C11616"/>
<path d="M160.251 31.3693C163.29 31.3693 165.393 30.1903 166.586 27.9602H166.756V30.9999H173.29V16.1704C173.29 11.5539 169.185 8.89766 163.631 8.89766C157.765 8.89766 154.441 11.8522 153.887 15.8295L160.293 16.0568C160.592 14.6647 161.742 13.8124 163.575 13.8124C165.279 13.8124 166.359 14.6363 166.359 16.0994V16.1704C166.359 17.5056 164.91 17.7897 161.188 18.1164C156.771 18.4857 153.077 20.1193 153.077 24.9488C153.077 29.267 156.075 31.3693 160.251 31.3693ZM162.396 26.8238C160.79 26.8238 159.654 26.0568 159.654 24.6079C159.654 23.2016 160.762 22.3494 162.736 22.0511C164.029 21.8664 165.62 21.5823 166.401 21.1704V23.2443C166.401 25.3749 164.611 26.8238 162.396 26.8238Z" fill="#C11616"/>
<path d="M33.8859 50.6899C33.8859 51.0019 33.8679 51.3319 33.8319 51.6799H25.9479C26.0079 52.6519 26.3379 53.4139 26.9379 53.9659C27.5499 54.5059 28.2879 54.7759 29.1519 54.7759C29.8599 54.7759 30.4479 54.6139 30.9159 54.2899C31.3959 53.9539 31.7319 53.5099 31.9239 52.9579H33.6879C33.4239 53.9059 32.8959 54.6799 32.1039 55.2799C31.3119 55.8679 30.3279 56.1619 29.1519 56.1619C28.2159 56.1619 27.3759 55.9519 26.6319 55.5319C25.8999 55.1119 25.3239 54.5179 24.9039 53.7499C24.4839 52.9699 24.2739 52.0699 24.2739 51.0499C24.2739 50.0299 24.4779 49.1359 24.8859 48.3679C25.2939 47.5999 25.8639 47.0119 26.5959 46.6039C27.3399 46.1839 28.1919 45.9739 29.1519 45.9739C30.0879 45.9739 30.9159 46.1779 31.6359 46.5859C32.3559 46.9939 32.9079 47.5579 33.2919 48.2779C33.6879 48.9859 33.8859 49.7899 33.8859 50.6899ZM32.1939 50.3479C32.1939 49.7239 32.0559 49.1899 31.7799 48.7459C31.5039 48.2899 31.1259 47.9479 30.6459 47.7199C30.1779 47.4799 29.6559 47.3599 29.0799 47.3599C28.2519 47.3599 27.5439 47.6239 26.9559 48.1519C26.3799 48.6799 26.0499 49.4119 25.9659 50.3479H32.1939Z" fill="#C11616"/>
<path d="M39.5401 56.1619C38.7841 56.1619 38.1061 56.0359 37.5061 55.7839C36.9061 55.5199 36.432 55.1599 36.084 54.7039C35.736 54.2359 35.544 53.7019 35.508 53.1019H37.2001C37.2481 53.5939 37.4761 53.9959 37.8841 54.3079C38.3041 54.6199 38.8501 54.7759 39.5221 54.7759C40.1461 54.7759 40.6381 54.6379 40.9981 54.3619C41.3581 54.0859 41.5381 53.7379 41.5381 53.3179C41.5381 52.8859 41.3461 52.5679 40.9621 52.3639C40.5781 52.1479 39.984 51.9379 39.18 51.7339C38.448 51.5419 37.8481 51.3499 37.3801 51.1579C36.9241 50.9539 36.5281 50.6599 36.1921 50.2759C35.8681 49.8799 35.7061 49.3639 35.7061 48.7279C35.7061 48.2239 35.8561 47.7619 36.1561 47.3419C36.4561 46.9219 36.8821 46.5919 37.4341 46.3519C37.9861 46.0999 38.6161 45.9739 39.3241 45.9739C40.4161 45.9739 41.2981 46.2499 41.9701 46.8019C42.6421 47.3539 43.0021 48.1099 43.0501 49.0699H41.4121C41.3761 48.5539 41.1661 48.1399 40.7821 47.8279C40.4101 47.5159 39.9061 47.3599 39.2701 47.3599C38.6821 47.3599 38.2141 47.4859 37.8661 47.7379C37.5181 47.9899 37.3441 48.3199 37.3441 48.7279C37.3441 49.0519 37.4461 49.3219 37.6501 49.5379C37.8661 49.7419 38.1301 49.9099 38.4421 50.0419C38.7661 50.1619 39.2101 50.2999 39.7741 50.4559C40.4821 50.6479 41.0581 50.8399 41.5021 51.0319C41.9461 51.2119 42.3241 51.4879 42.6361 51.8599C42.9601 52.2319 43.1281 52.7179 43.1401 53.3179C43.1401 53.8579 42.9901 54.3439 42.6901 54.7759C42.3901 55.2079 41.9641 55.5499 41.4121 55.8019C40.8721 56.0419 40.2481 56.1619 39.5401 56.1619Z" fill="#C11616"/>
<path d="M47.4503 47.4859V53.2999C47.4503 53.7799 47.5523 54.1219 47.7563 54.3259C47.9603 54.5179 48.3143 54.6139 48.8183 54.6139H50.0243V55.9999H48.5483C47.6363 55.9999 46.9523 55.7899 46.4963 55.3699C46.0403 54.9499 45.8123 54.2599 45.8123 53.2999V47.4859H44.5343V46.1359H45.8123V43.6519H47.4503V46.1359H50.0243V47.4859H47.4503Z" fill="#C11616"/>
<path d="M51.397 51.0319C51.397 50.0239 51.601 49.1419 52.009 48.3859C52.417 47.6179 52.975 47.0239 53.683 46.6039C54.403 46.1839 55.201 45.9739 56.077 45.9739C56.941 45.9739 57.691 46.1599 58.327 46.5319C58.963 46.9039 59.437 47.3719 59.749 47.9359V46.1359H61.405V55.9999H59.749V54.1639C59.425 54.7399 58.939 55.2199 58.291 55.6039C57.655 55.9759 56.911 56.1619 56.059 56.1619C55.183 56.1619 54.391 55.9459 53.683 55.5139C52.975 55.0819 52.417 54.4759 52.009 53.6959C51.601 52.9159 51.397 52.0279 51.397 51.0319ZM59.749 51.0499C59.749 50.3059 59.599 49.6579 59.299 49.1059C58.999 48.5539 58.591 48.1339 58.075 47.8459C57.571 47.5459 57.013 47.3959 56.401 47.3959C55.789 47.3959 55.231 47.5399 54.727 47.8279C54.223 48.1159 53.821 48.5359 53.521 49.0879C53.221 49.6399 53.071 50.2879 53.071 51.0319C53.071 51.7879 53.221 52.4479 53.521 53.0119C53.821 53.5639 54.223 53.9899 54.727 54.2899C55.231 54.5779 55.789 54.7219 56.401 54.7219C57.013 54.7219 57.571 54.5779 58.075 54.2899C58.591 53.9899 58.999 53.5639 59.299 53.0119C59.599 52.4479 59.749 51.7939 59.749 51.0499ZM58.471 43.3459L54.637 45.3979V44.1739L58.471 41.9239V43.3459Z" fill="#C11616"/>
<path d="M73.7779 45.9559C74.9779 45.9559 75.9499 46.3219 76.6939 47.0539C77.4379 47.7739 77.8099 48.8179 77.8099 50.1859V55.9999H76.1899V50.4199C76.1899 49.4359 75.9439 48.6859 75.4519 48.1699C74.9599 47.6419 74.2879 47.3779 73.4359 47.3779C72.5719 47.3779 71.8819 47.6479 71.3659 48.1879C70.8619 48.7279 70.6099 49.5139 70.6099 50.5459V55.9999H68.9719V46.1359H70.6099V47.5399C70.9339 47.0359 71.3719 46.6459 71.9239 46.3699C72.4879 46.0939 73.1059 45.9559 73.7779 45.9559Z" fill="#C11616"/>
<path d="M84.7876 56.1619C83.8636 56.1619 83.0235 55.9519 82.2675 55.5319C81.5235 55.1119 80.9355 54.5179 80.5035 53.7499C80.0835 52.9699 79.8736 52.0699 79.8736 51.0499C79.8736 50.0419 80.0896 49.1539 80.5216 48.3859C80.9656 47.6059 81.5655 47.0119 82.3215 46.6039C83.0775 46.1839 83.9236 45.9739 84.8596 45.9739C85.7956 45.9739 86.6416 46.1839 87.3976 46.6039C88.1536 47.0119 88.7476 47.5999 89.1796 48.3679C89.6236 49.1359 89.8456 50.0299 89.8456 51.0499C89.8456 52.0699 89.6176 52.9699 89.1616 53.7499C88.7176 54.5179 88.1116 55.1119 87.3436 55.5319C86.5756 55.9519 85.7236 56.1619 84.7876 56.1619ZM84.7876 54.7219C85.3756 54.7219 85.9275 54.5839 86.4436 54.3079C86.9596 54.0319 87.3736 53.6179 87.6856 53.0659C88.0096 52.5139 88.1716 51.8419 88.1716 51.0499C88.1716 50.2579 88.0156 49.5859 87.7036 49.0339C87.3916 48.4819 86.9836 48.0739 86.4796 47.8099C85.9756 47.5339 85.4296 47.3959 84.8416 47.3959C84.2416 47.3959 83.6896 47.5339 83.1856 47.8099C82.6936 48.0739 82.2976 48.4819 81.9976 49.0339C81.6976 49.5859 81.5476 50.2579 81.5476 51.0499C81.5476 51.8539 81.6916 52.5319 81.9796 53.0839C82.2796 53.6359 82.6755 54.0499 83.1675 54.3259C83.6595 54.5899 84.1996 54.7219 84.7876 54.7219Z" fill="#C11616"/>
<path d="M95.4912 56.1619C94.7352 56.1619 94.0572 56.0359 93.4572 55.7839C92.8572 55.5199 92.3832 55.1599 92.0352 54.7039C91.6872 54.2359 91.4952 53.7019 91.4592 53.1019H93.1512C93.1992 53.5939 93.4272 53.9959 93.8352 54.3079C94.2552 54.6199 94.8012 54.7759 95.4732 54.7759C96.0972 54.7759 96.5892 54.6379 96.9492 54.3619C97.3092 54.0859 97.4892 53.7379 97.4892 53.3179C97.4892 52.8859 97.2972 52.5679 96.9132 52.3639C96.5292 52.1479 95.9352 51.9379 95.1312 51.7339C94.3992 51.5419 93.7992 51.3499 93.3312 51.1579C92.8752 50.9539 92.4792 50.6599 92.1432 50.2759C91.8192 49.8799 91.6572 49.3639 91.6572 48.7279C91.6572 48.2239 91.8072 47.7619 92.1072 47.3419C92.4072 46.9219 92.8332 46.5919 93.3852 46.3519C93.9372 46.0999 94.5672 45.9739 95.2752 45.9739C96.3672 45.9739 97.2492 46.2499 97.9212 46.8019C98.5932 47.3539 98.9532 48.1099 99.0012 49.0699H97.3632C97.3272 48.5539 97.1172 48.1399 96.7332 47.8279C96.3612 47.5159 95.8572 47.3599 95.2212 47.3599C94.6332 47.3599 94.1652 47.4859 93.8172 47.7379C93.4692 47.9899 93.2952 48.3199 93.2952 48.7279C93.2952 49.0519 93.3972 49.3219 93.6012 49.5379C93.8172 49.7419 94.0812 49.9099 94.3932 50.0419C94.7172 50.1619 95.1612 50.2999 95.7252 50.4559C96.4332 50.6479 97.0092 50.8399 97.4532 51.0319C97.8972 51.2119 98.2752 51.4879 98.5872 51.8599C98.9112 52.2319 99.0792 52.7179 99.0912 53.3179C99.0912 53.8579 98.9412 54.3439 98.6412 54.7759C98.3412 55.2079 97.9152 55.5499 97.3632 55.8019C96.8232 56.0419 96.1992 56.1619 95.4912 56.1619Z" fill="#C11616"/>
<path d="M105.59 51.0319C105.59 50.0239 105.794 49.1419 106.202 48.3859C106.61 47.6179 107.168 47.0239 107.876 46.6039C108.596 46.1839 109.4 45.9739 110.288 45.9739C111.056 45.9739 111.77 46.1539 112.43 46.5139C113.09 46.8619 113.594 47.3239 113.942 47.8999V42.6799H115.598V55.9999H113.942V54.1459C113.618 54.7339 113.138 55.2199 112.502 55.6039C111.866 55.9759 111.122 56.1619 110.27 56.1619C109.394 56.1619 108.596 55.9459 107.876 55.5139C107.168 55.0819 106.61 54.4759 106.202 53.6959C105.794 52.9159 105.59 52.0279 105.59 51.0319ZM113.942 51.0499C113.942 50.3059 113.792 49.6579 113.492 49.1059C113.192 48.5539 112.784 48.1339 112.268 47.8459C111.764 47.5459 111.206 47.3959 110.594 47.3959C109.982 47.3959 109.424 47.5399 108.92 47.8279C108.416 48.1159 108.014 48.5359 107.714 49.0879C107.414 49.6399 107.264 50.2879 107.264 51.0319C107.264 51.7879 107.414 52.4479 107.714 53.0119C108.014 53.5639 108.416 53.9899 108.92 54.2899C109.424 54.5779 109.982 54.7219 110.594 54.7219C111.206 54.7219 111.764 54.5779 112.268 54.2899C112.784 53.9899 113.192 53.5639 113.492 53.0119C113.792 52.4479 113.942 51.7939 113.942 51.0499Z" fill="#C11616"/>
<path d="M127.366 50.6899C127.366 51.0019 127.348 51.3319 127.312 51.6799H119.428C119.488 52.6519 119.818 53.4139 120.418 53.9659C121.03 54.5059 121.768 54.7759 122.632 54.7759C123.34 54.7759 123.928 54.6139 124.396 54.2899C124.876 53.9539 125.212 53.5099 125.404 52.9579H127.168C126.904 53.9059 126.376 54.6799 125.584 55.2799C124.792 55.8679 123.808 56.1619 122.632 56.1619C121.696 56.1619 120.856 55.9519 120.112 55.5319C119.38 55.1119 118.804 54.5179 118.384 53.7499C117.964 52.9699 117.754 52.0699 117.754 51.0499C117.754 50.0299 117.958 49.1359 118.366 48.3679C118.774 47.5999 119.344 47.0119 120.076 46.6039C120.82 46.1839 121.672 45.9739 122.632 45.9739C123.568 45.9739 124.396 46.1779 125.116 46.5859C125.836 46.9939 126.388 47.5579 126.772 48.2779C127.168 48.9859 127.366 49.7899 127.366 50.6899ZM125.674 50.3479C125.674 49.7239 125.536 49.1899 125.26 48.7459C124.984 48.2899 124.606 47.9479 124.126 47.7199C123.658 47.4799 123.136 47.3599 122.56 47.3599C121.732 47.3599 121.024 47.6239 120.436 48.1519C119.86 48.6799 119.53 49.4119 119.446 50.3479H125.674Z" fill="#C11616"/>
<path d="M131.527 47.4859V53.2999C131.527 53.7799 131.629 54.1219 131.833 54.3259C132.037 54.5179 132.391 54.6139 132.895 54.6139H134.101V55.9999H132.625C131.713 55.9999 131.029 55.7899 130.573 55.3699C130.117 54.9499 129.889 54.2599 129.889 53.2999V47.4859H128.611V46.1359H129.889V43.6519H131.527V46.1359H134.101V47.4859H131.527Z" fill="#C11616"/>
<path d="M135.473 51.0319C135.473 50.0239 135.677 49.1419 136.085 48.3859C136.493 47.6179 137.051 47.0239 137.759 46.6039C138.479 46.1839 139.277 45.9739 140.153 45.9739C141.017 45.9739 141.767 46.1599 142.403 46.5319C143.039 46.9039 143.513 47.3719 143.825 47.9359V46.1359H145.481V55.9999H143.825V54.1639C143.501 54.7399 143.015 55.2199 142.367 55.6039C141.731 55.9759 140.987 56.1619 140.135 56.1619C139.259 56.1619 138.467 55.9459 137.759 55.5139C137.051 55.0819 136.493 54.4759 136.085 53.6959C135.677 52.9159 135.473 52.0279 135.473 51.0319ZM143.825 51.0499C143.825 50.3059 143.675 49.6579 143.375 49.1059C143.075 48.5539 142.667 48.1339 142.151 47.8459C141.647 47.5459 141.089 47.3959 140.477 47.3959C139.865 47.3959 139.307 47.5399 138.803 47.8279C138.299 48.1159 137.897 48.5359 137.597 49.0879C137.297 49.6399 137.147 50.2879 137.147 51.0319C137.147 51.7879 137.297 52.4479 137.597 53.0119C137.897 53.5639 138.299 53.9899 138.803 54.2899C139.307 54.5779 139.865 54.7219 140.477 54.7219C141.089 54.7219 141.647 54.5779 142.151 54.2899C142.667 53.9899 143.075 53.5639 143.375 53.0119C143.675 52.4479 143.825 51.7939 143.825 51.0499Z" fill="#C11616"/>
<path d="M149.887 42.6799V55.9999H148.249V42.6799H149.887Z" fill="#C11616"/>
<path d="M157.575 45.9559C158.319 45.9559 158.991 46.1179 159.591 46.4419C160.191 46.7539 160.659 47.2279 160.995 47.8639C161.343 48.4999 161.517 49.2739 161.517 50.1859V55.9999H159.897V50.4199C159.897 49.4359 159.651 48.6859 159.159 48.1699C158.667 47.6419 157.995 47.3779 157.143 47.3779C156.279 47.3779 155.589 47.6479 155.073 48.1879C154.569 48.7279 154.317 49.5139 154.317 50.5459V55.9999H152.679V42.6799H154.317V47.5399C154.641 47.0359 155.085 46.6459 155.649 46.3699C156.225 46.0939 156.867 45.9559 157.575 45.9559Z" fill="#C11616"/>
<path d="M173.193 50.6899C173.193 51.0019 173.175 51.3319 173.139 51.6799H165.255C165.315 52.6519 165.645 53.4139 166.245 53.9659C166.857 54.5059 167.595 54.7759 168.459 54.7759C169.167 54.7759 169.755 54.6139 170.223 54.2899C170.703 53.9539 171.039 53.5099 171.231 52.9579H172.995C172.731 53.9059 172.203 54.6799 171.411 55.2799C170.619 55.8679 169.635 56.1619 168.459 56.1619C167.523 56.1619 166.683 55.9519 165.939 55.5319C165.207 55.1119 164.631 54.5179 164.211 53.7499C163.791 52.9699 163.581 52.0699 163.581 51.0499C163.581 50.0299 163.785 49.1359 164.193 48.3679C164.601 47.5999 165.171 47.0119 165.903 46.6039C166.647 46.1839 167.499 45.9739 168.459 45.9739C169.395 45.9739 170.223 46.1779 170.943 46.5859C171.663 46.9939 172.215 47.5579 172.599 48.2779C172.995 48.9859 173.193 49.7899 173.193 50.6899ZM171.501 50.3479C171.501 49.7239 171.363 49.1899 171.087 48.7459C170.811 48.2899 170.433 47.9479 169.953 47.7199C169.485 47.4799 168.963 47.3599 168.387 47.3599C167.559 47.3599 166.851 47.6239 166.263 48.1519C165.687 48.6799 165.357 49.4119 165.273 50.3479H171.501Z" fill="#C11616"/>
<path d="M178.847 56.1619C178.091 56.1619 177.413 56.0359 176.813 55.7839C176.213 55.5199 175.739 55.1599 175.391 54.7039C175.043 54.2359 174.851 53.7019 174.815 53.1019H176.507C176.555 53.5939 176.783 53.9959 177.191 54.3079C177.611 54.6199 178.157 54.7759 178.829 54.7759C179.453 54.7759 179.945 54.6379 180.305 54.3619C180.665 54.0859 180.845 53.7379 180.845 53.3179C180.845 52.8859 180.653 52.5679 180.269 52.3639C179.885 52.1479 179.291 51.9379 178.487 51.7339C177.755 51.5419 177.155 51.3499 176.687 51.1579C176.231 50.9539 175.835 50.6599 175.499 50.2759C175.175 49.8799 175.013 49.3639 175.013 48.7279C175.013 48.2239 175.163 47.7619 175.463 47.3419C175.763 46.9219 176.189 46.5919 176.741 46.3519C177.293 46.0999 177.923 45.9739 178.631 45.9739C179.723 45.9739 180.605 46.2499 181.277 46.8019C181.949 47.3539 182.309 48.1099 182.357 49.0699H180.719C180.683 48.5539 180.473 48.1399 180.089 47.8279C179.717 47.5159 179.213 47.3599 178.577 47.3599C177.989 47.3599 177.521 47.4859 177.173 47.7379C176.825 47.9899 176.651 48.3199 176.651 48.7279C176.651 49.0519 176.753 49.3219 176.957 49.5379C177.173 49.7419 177.437 49.9099 177.749 50.0419C178.073 50.1619 178.517 50.2999 179.081 50.4559C179.789 50.6479 180.365 50.8399 180.809 51.0319C181.253 51.2119 181.631 51.4879 181.943 51.8599C182.267 52.2319 182.435 52.7179 182.447 53.3179C182.447 53.8579 182.297 54.3439 181.997 54.7759C181.697 55.2079 181.271 55.5499 180.719 55.8019C180.179 56.0419 179.555 56.1619 178.847 56.1619Z" fill="#C11616"/>
<path d="M19.4039 5.29593L16.0759 21.9999H14.5399L15.1799 18.7359C14.3693 19.8026 13.3559 20.6346 12.1399 21.2319C10.9453 21.8293 9.61194 22.1279 8.13994 22.1279C5.96394 22.1279 4.21461 21.5093 2.89194 20.2719C1.59061 19.0133 0.939941 17.3173 0.939941 15.1839C0.939941 13.2853 1.34527 11.5786 2.15594 10.0639C2.96661 8.52793 4.08661 7.33327 5.51594 6.47993C6.96661 5.60527 8.58794 5.16793 10.3799 5.16793C12.1079 5.16793 13.5373 5.54127 14.6679 6.28793C15.7986 7.0346 16.5666 8.0906 16.9719 9.45593L17.8039 5.29593H19.4039ZM8.45994 20.6879C9.95328 20.6879 11.2866 20.3253 12.4599 19.5999C13.6546 18.8746 14.5933 17.8719 15.2759 16.5919C15.9586 15.2906 16.2999 13.8293 16.2999 12.2079C16.2999 10.4373 15.7773 9.06127 14.7319 8.07993C13.7079 7.0986 12.2573 6.60793 10.3799 6.60793C8.88661 6.60793 7.54261 6.98127 6.34794 7.72793C5.17461 8.45327 4.24661 9.4666 3.56394 10.7679C2.88127 12.0479 2.53994 13.4879 2.53994 15.0879C2.53994 16.8586 3.05194 18.2346 4.07594 19.2159C5.12127 20.1973 6.58261 20.6879 8.45994 20.6879Z" fill="#C11616"/>
</g>
</svg>
