<svg width="182" height="57" viewBox="0 0 182 57" fill="none" xmlns="http://www.w3.org/2000/svg">
<g id="Vector" opacity="0.8">
<path d="M32.1477 18.5568C32.1619 16.071 33.6391 14.5938 35.8409 14.5938C38.071 14.5938 39.3636 16.0284 39.3494 18.4574V31H46.2954V17.0938C46.3096 12.1506 43.2982 8.89773 38.7102 8.89773C35.4431 8.89773 33.142 10.5028 32.1619 13.1875H31.9204V1.90909H25.2016V31H32.1477V18.5568Z" fill="white"/>
<path d="M50.6313 31H57.5774V9.18182H50.6313V31ZM54.1114 6.6392C56.0859 6.6392 57.6768 5.14773 57.6768 3.31534C57.6768 1.48295 56.0859 0.00568008 54.1114 0.00568008C52.1512 0.00568008 50.5461 1.48295 50.5461 3.31534C50.5461 5.14773 52.1512 6.6392 54.1114 6.6392Z" fill="white"/>
<path d="M81.0468 15.8438C80.6775 11.5256 77.1406 8.89773 71.2315 8.89773C65.3224 8.89773 61.5582 11.4688 61.5866 15.8438C61.5582 19.196 63.7031 21.3551 68.0639 22.1648L71.8707 22.8892C73.6747 23.2443 74.4985 23.8125 74.5269 24.7784C74.4985 25.8722 73.2769 26.5966 71.5014 26.5966C69.5269 26.5966 68.1917 25.7443 67.8934 24.1534L61.0326 24.3239C61.5298 28.642 65.2372 31.4119 71.473 31.4119C77.311 31.4119 81.5582 28.5 81.5866 24.0114C81.5582 20.8295 79.4559 18.9403 75.1093 18.1023L70.9048 17.3068C69.0582 16.9375 68.4616 16.2841 68.4758 15.446C68.4616 14.3381 69.7542 13.6562 71.3593 13.6562C73.1917 13.6562 74.4701 14.6364 74.669 16.0142L81.0468 15.8438Z" fill="white"/>
<path d="M97.3217 9.18182H93.387V3.95455H86.441V9.18182H83.5575V14.2955H86.441V24.9062C86.3984 29.3239 89.2677 31.5398 94.1683 31.3125C95.8444 31.2273 97.0518 30.8864 97.7194 30.6875L96.6683 25.6733C96.37 25.7443 95.6739 25.8864 95.1484 25.8864C94.0262 25.8864 93.387 25.4318 93.387 24.1392V14.2955H97.3217V9.18182Z" fill="white"/>
<path d="M110.816 31.4119C117.677 31.4119 121.839 26.8807 121.839 20.1619C121.839 13.429 117.677 8.89773 110.816 8.89773C103.955 8.89773 99.7933 13.429 99.7933 20.1619C99.7933 26.8807 103.955 31.4119 110.816 31.4119ZM110.859 26.1705C108.288 26.1705 106.867 23.7273 106.867 20.1193C106.867 16.4972 108.288 14.0398 110.859 14.0398C113.344 14.0398 114.765 16.4972 114.765 20.1193C114.765 23.7273 113.344 26.1705 110.859 26.1705ZM108.415 6.41193H113.146L117.435 0.00568008H111.285L108.415 6.41193Z" fill="white"/>
<path d="M125.397 31H132.343V19.1534C132.343 16.554 134.19 14.8068 136.675 14.8068C137.499 14.8068 138.735 14.9489 139.403 15.1761V9.1392C138.82 8.98295 138.096 8.88352 137.457 8.88352C135.07 8.88352 133.167 10.2756 132.371 13.1591H132.144V9.18182H125.397V31Z" fill="white"/>
<path d="M142.233 31H149.179V9.18182H142.233V31ZM145.713 6.6392C147.687 6.6392 149.278 5.14773 149.278 3.31534C149.278 1.48295 147.687 0.00568008 145.713 0.00568008C143.753 0.00568008 142.148 1.48295 142.148 3.31534C142.148 5.14773 143.753 6.6392 145.713 6.6392Z" fill="white"/>
<path d="M159.751 31.3693C162.79 31.3693 164.893 30.1903 166.086 27.9602H166.256V31H172.79V16.1705C172.79 11.554 168.685 8.89773 163.131 8.89773C157.265 8.89773 153.941 11.8523 153.387 15.8295L159.793 16.0568C160.092 14.6648 161.242 13.8125 163.075 13.8125C164.779 13.8125 165.859 14.6364 165.859 16.0994V16.1705C165.859 17.5057 164.41 17.7898 160.688 18.1165C156.271 18.4858 152.577 20.1193 152.577 24.9489C152.577 29.267 155.575 31.3693 159.751 31.3693ZM161.896 26.8239C160.29 26.8239 159.154 26.0568 159.154 24.608C159.154 23.2017 160.262 22.3494 162.236 22.0511C163.529 21.8665 165.12 21.5824 165.901 21.1705V23.2443C165.901 25.375 164.111 26.8239 161.896 26.8239Z" fill="white"/>
<path d="M33.3859 50.69C33.3859 51.002 33.3679 51.332 33.3319 51.68H25.4479C25.5079 52.652 25.8379 53.414 26.4379 53.966C27.0499 54.506 27.7879 54.776 28.6519 54.776C29.3599 54.776 29.9479 54.614 30.4159 54.29C30.8959 53.954 31.2319 53.51 31.4239 52.958H33.1879C32.9239 53.906 32.3959 54.68 31.6039 55.28C30.8119 55.868 29.8279 56.162 28.6519 56.162C27.7159 56.162 26.8759 55.952 26.1319 55.532C25.3999 55.112 24.8239 54.518 24.4039 53.75C23.9839 52.97 23.7739 52.07 23.7739 51.05C23.7739 50.03 23.9779 49.136 24.3859 48.368C24.7939 47.6 25.3639 47.012 26.0959 46.604C26.8399 46.184 27.6919 45.974 28.6519 45.974C29.5879 45.974 30.4159 46.178 31.1359 46.586C31.8559 46.994 32.4079 47.558 32.7919 48.278C33.1879 48.986 33.3859 49.79 33.3859 50.69ZM31.6939 50.348C31.6939 49.724 31.5559 49.19 31.2799 48.746C31.0039 48.29 30.6259 47.948 30.1459 47.72C29.6779 47.48 29.1559 47.36 28.5799 47.36C27.7519 47.36 27.0439 47.624 26.4559 48.152C25.8799 48.68 25.5499 49.412 25.4659 50.348H31.6939Z" fill="white"/>
<path d="M39.0401 56.162C38.2841 56.162 37.6061 56.036 37.0061 55.784C36.4061 55.52 35.932 55.16 35.584 54.704C35.236 54.236 35.044 53.702 35.008 53.102H36.7001C36.7481 53.594 36.9761 53.996 37.3841 54.308C37.8041 54.62 38.3501 54.776 39.0221 54.776C39.6461 54.776 40.1381 54.638 40.4981 54.362C40.8581 54.086 41.0381 53.738 41.0381 53.318C41.0381 52.886 40.8461 52.568 40.4621 52.364C40.0781 52.148 39.484 51.938 38.68 51.734C37.948 51.542 37.3481 51.35 36.8801 51.158C36.4241 50.954 36.0281 50.66 35.6921 50.276C35.3681 49.88 35.2061 49.364 35.2061 48.728C35.2061 48.224 35.3561 47.762 35.6561 47.342C35.9561 46.922 36.3821 46.592 36.9341 46.352C37.4861 46.1 38.1161 45.974 38.8241 45.974C39.9161 45.974 40.7981 46.25 41.4701 46.802C42.1421 47.354 42.5021 48.11 42.5501 49.07H40.9121C40.8761 48.554 40.6661 48.14 40.2821 47.828C39.9101 47.516 39.4061 47.36 38.7701 47.36C38.1821 47.36 37.7141 47.486 37.3661 47.738C37.0181 47.99 36.8441 48.32 36.8441 48.728C36.8441 49.052 36.9461 49.322 37.1501 49.538C37.3661 49.742 37.6301 49.91 37.9421 50.042C38.2661 50.162 38.7101 50.3 39.2741 50.456C39.9821 50.648 40.5581 50.84 41.0021 51.032C41.4461 51.212 41.8241 51.488 42.1361 51.86C42.4601 52.232 42.6281 52.718 42.6401 53.318C42.6401 53.858 42.4901 54.344 42.1901 54.776C41.8901 55.208 41.4641 55.55 40.9121 55.802C40.3721 56.042 39.7481 56.162 39.0401 56.162Z" fill="white"/>
<path d="M46.9503 47.486V53.3C46.9503 53.78 47.0523 54.122 47.2563 54.326C47.4603 54.518 47.8143 54.614 48.3183 54.614H49.5243V56H48.0483C47.1363 56 46.4523 55.79 45.9963 55.37C45.5403 54.95 45.3123 54.26 45.3123 53.3V47.486H44.0343V46.136H45.3123V43.652H46.9503V46.136H49.5243V47.486H46.9503Z" fill="white"/>
<path d="M50.897 51.032C50.897 50.024 51.101 49.142 51.509 48.386C51.917 47.618 52.475 47.024 53.183 46.604C53.903 46.184 54.701 45.974 55.577 45.974C56.441 45.974 57.191 46.16 57.827 46.532C58.463 46.904 58.937 47.372 59.249 47.936V46.136H60.905V56H59.249V54.164C58.925 54.74 58.439 55.22 57.791 55.604C57.155 55.976 56.411 56.162 55.559 56.162C54.683 56.162 53.891 55.946 53.183 55.514C52.475 55.082 51.917 54.476 51.509 53.696C51.101 52.916 50.897 52.028 50.897 51.032ZM59.249 51.05C59.249 50.306 59.099 49.658 58.799 49.106C58.499 48.554 58.091 48.134 57.575 47.846C57.071 47.546 56.513 47.396 55.901 47.396C55.289 47.396 54.731 47.54 54.227 47.828C53.723 48.116 53.321 48.536 53.021 49.088C52.721 49.64 52.571 50.288 52.571 51.032C52.571 51.788 52.721 52.448 53.021 53.012C53.321 53.564 53.723 53.99 54.227 54.29C54.731 54.578 55.289 54.722 55.901 54.722C56.513 54.722 57.071 54.578 57.575 54.29C58.091 53.99 58.499 53.564 58.799 53.012C59.099 52.448 59.249 51.794 59.249 51.05ZM57.971 43.346L54.137 45.398V44.174L57.971 41.924V43.346Z" fill="white"/>
<path d="M73.2779 45.956C74.4779 45.956 75.4499 46.322 76.1939 47.054C76.9379 47.774 77.3099 48.818 77.3099 50.186V56H75.6899V50.42C75.6899 49.436 75.4439 48.686 74.9519 48.17C74.4599 47.642 73.7879 47.378 72.9359 47.378C72.0719 47.378 71.3819 47.648 70.8659 48.188C70.3619 48.728 70.1099 49.514 70.1099 50.546V56H68.4719V46.136H70.1099V47.54C70.4339 47.036 70.8719 46.646 71.4239 46.37C71.9879 46.094 72.6059 45.956 73.2779 45.956Z" fill="white"/>
<path d="M84.2876 56.162C83.3636 56.162 82.5235 55.952 81.7675 55.532C81.0235 55.112 80.4355 54.518 80.0035 53.75C79.5835 52.97 79.3736 52.07 79.3736 51.05C79.3736 50.042 79.5896 49.154 80.0216 48.386C80.4656 47.606 81.0655 47.012 81.8215 46.604C82.5775 46.184 83.4236 45.974 84.3596 45.974C85.2956 45.974 86.1416 46.184 86.8976 46.604C87.6536 47.012 88.2476 47.6 88.6796 48.368C89.1236 49.136 89.3456 50.03 89.3456 51.05C89.3456 52.07 89.1176 52.97 88.6616 53.75C88.2176 54.518 87.6116 55.112 86.8436 55.532C86.0756 55.952 85.2236 56.162 84.2876 56.162ZM84.2876 54.722C84.8756 54.722 85.4275 54.584 85.9436 54.308C86.4596 54.032 86.8736 53.618 87.1856 53.066C87.5096 52.514 87.6716 51.842 87.6716 51.05C87.6716 50.258 87.5156 49.586 87.2036 49.034C86.8916 48.482 86.4836 48.074 85.9796 47.81C85.4756 47.534 84.9296 47.396 84.3416 47.396C83.7416 47.396 83.1896 47.534 82.6856 47.81C82.1936 48.074 81.7976 48.482 81.4976 49.034C81.1976 49.586 81.0476 50.258 81.0476 51.05C81.0476 51.854 81.1916 52.532 81.4796 53.084C81.7796 53.636 82.1755 54.05 82.6675 54.326C83.1595 54.59 83.6996 54.722 84.2876 54.722Z" fill="white"/>
<path d="M94.9912 56.162C94.2352 56.162 93.5572 56.036 92.9572 55.784C92.3572 55.52 91.8832 55.16 91.5352 54.704C91.1872 54.236 90.9952 53.702 90.9592 53.102H92.6512C92.6992 53.594 92.9272 53.996 93.3352 54.308C93.7552 54.62 94.3012 54.776 94.9732 54.776C95.5972 54.776 96.0892 54.638 96.4492 54.362C96.8092 54.086 96.9892 53.738 96.9892 53.318C96.9892 52.886 96.7972 52.568 96.4132 52.364C96.0292 52.148 95.4352 51.938 94.6312 51.734C93.8992 51.542 93.2992 51.35 92.8312 51.158C92.3752 50.954 91.9792 50.66 91.6432 50.276C91.3192 49.88 91.1572 49.364 91.1572 48.728C91.1572 48.224 91.3072 47.762 91.6072 47.342C91.9072 46.922 92.3332 46.592 92.8852 46.352C93.4372 46.1 94.0672 45.974 94.7752 45.974C95.8672 45.974 96.7492 46.25 97.4212 46.802C98.0932 47.354 98.4532 48.11 98.5012 49.07H96.8632C96.8272 48.554 96.6172 48.14 96.2332 47.828C95.8612 47.516 95.3572 47.36 94.7212 47.36C94.1332 47.36 93.6652 47.486 93.3172 47.738C92.9692 47.99 92.7952 48.32 92.7952 48.728C92.7952 49.052 92.8972 49.322 93.1012 49.538C93.3172 49.742 93.5812 49.91 93.8932 50.042C94.2172 50.162 94.6612 50.3 95.2252 50.456C95.9332 50.648 96.5092 50.84 96.9532 51.032C97.3972 51.212 97.7752 51.488 98.0872 51.86C98.4112 52.232 98.5792 52.718 98.5912 53.318C98.5912 53.858 98.4412 54.344 98.1412 54.776C97.8412 55.208 97.4152 55.55 96.8632 55.802C96.3232 56.042 95.6992 56.162 94.9912 56.162Z" fill="white"/>
<path d="M105.09 51.032C105.09 50.024 105.294 49.142 105.702 48.386C106.11 47.618 106.668 47.024 107.376 46.604C108.096 46.184 108.9 45.974 109.788 45.974C110.556 45.974 111.27 46.154 111.93 46.514C112.59 46.862 113.094 47.324 113.442 47.9V42.68H115.098V56H113.442V54.146C113.118 54.734 112.638 55.22 112.002 55.604C111.366 55.976 110.622 56.162 109.77 56.162C108.894 56.162 108.096 55.946 107.376 55.514C106.668 55.082 106.11 54.476 105.702 53.696C105.294 52.916 105.09 52.028 105.09 51.032ZM113.442 51.05C113.442 50.306 113.292 49.658 112.992 49.106C112.692 48.554 112.284 48.134 111.768 47.846C111.264 47.546 110.706 47.396 110.094 47.396C109.482 47.396 108.924 47.54 108.42 47.828C107.916 48.116 107.514 48.536 107.214 49.088C106.914 49.64 106.764 50.288 106.764 51.032C106.764 51.788 106.914 52.448 107.214 53.012C107.514 53.564 107.916 53.99 108.42 54.29C108.924 54.578 109.482 54.722 110.094 54.722C110.706 54.722 111.264 54.578 111.768 54.29C112.284 53.99 112.692 53.564 112.992 53.012C113.292 52.448 113.442 51.794 113.442 51.05Z" fill="white"/>
<path d="M126.866 50.69C126.866 51.002 126.848 51.332 126.812 51.68H118.928C118.988 52.652 119.318 53.414 119.918 53.966C120.53 54.506 121.268 54.776 122.132 54.776C122.84 54.776 123.428 54.614 123.896 54.29C124.376 53.954 124.712 53.51 124.904 52.958H126.668C126.404 53.906 125.876 54.68 125.084 55.28C124.292 55.868 123.308 56.162 122.132 56.162C121.196 56.162 120.356 55.952 119.612 55.532C118.88 55.112 118.304 54.518 117.884 53.75C117.464 52.97 117.254 52.07 117.254 51.05C117.254 50.03 117.458 49.136 117.866 48.368C118.274 47.6 118.844 47.012 119.576 46.604C120.32 46.184 121.172 45.974 122.132 45.974C123.068 45.974 123.896 46.178 124.616 46.586C125.336 46.994 125.888 47.558 126.272 48.278C126.668 48.986 126.866 49.79 126.866 50.69ZM125.174 50.348C125.174 49.724 125.036 49.19 124.76 48.746C124.484 48.29 124.106 47.948 123.626 47.72C123.158 47.48 122.636 47.36 122.06 47.36C121.232 47.36 120.524 47.624 119.936 48.152C119.36 48.68 119.03 49.412 118.946 50.348H125.174Z" fill="white"/>
<path d="M131.027 47.486V53.3C131.027 53.78 131.129 54.122 131.333 54.326C131.537 54.518 131.891 54.614 132.395 54.614H133.601V56H132.125C131.213 56 130.529 55.79 130.073 55.37C129.617 54.95 129.389 54.26 129.389 53.3V47.486H128.111V46.136H129.389V43.652H131.027V46.136H133.601V47.486H131.027Z" fill="white"/>
<path d="M134.973 51.032C134.973 50.024 135.177 49.142 135.585 48.386C135.993 47.618 136.551 47.024 137.259 46.604C137.979 46.184 138.777 45.974 139.653 45.974C140.517 45.974 141.267 46.16 141.903 46.532C142.539 46.904 143.013 47.372 143.325 47.936V46.136H144.981V56H143.325V54.164C143.001 54.74 142.515 55.22 141.867 55.604C141.231 55.976 140.487 56.162 139.635 56.162C138.759 56.162 137.967 55.946 137.259 55.514C136.551 55.082 135.993 54.476 135.585 53.696C135.177 52.916 134.973 52.028 134.973 51.032ZM143.325 51.05C143.325 50.306 143.175 49.658 142.875 49.106C142.575 48.554 142.167 48.134 141.651 47.846C141.147 47.546 140.589 47.396 139.977 47.396C139.365 47.396 138.807 47.54 138.303 47.828C137.799 48.116 137.397 48.536 137.097 49.088C136.797 49.64 136.647 50.288 136.647 51.032C136.647 51.788 136.797 52.448 137.097 53.012C137.397 53.564 137.799 53.99 138.303 54.29C138.807 54.578 139.365 54.722 139.977 54.722C140.589 54.722 141.147 54.578 141.651 54.29C142.167 53.99 142.575 53.564 142.875 53.012C143.175 52.448 143.325 51.794 143.325 51.05Z" fill="white"/>
<path d="M149.387 42.68V56H147.749V42.68H149.387Z" fill="white"/>
<path d="M157.075 45.956C157.819 45.956 158.491 46.118 159.091 46.442C159.691 46.754 160.159 47.228 160.495 47.864C160.843 48.5 161.017 49.274 161.017 50.186V56H159.397V50.42C159.397 49.436 159.151 48.686 158.659 48.17C158.167 47.642 157.495 47.378 156.643 47.378C155.779 47.378 155.089 47.648 154.573 48.188C154.069 48.728 153.817 49.514 153.817 50.546V56H152.179V42.68H153.817V47.54C154.141 47.036 154.585 46.646 155.149 46.37C155.725 46.094 156.367 45.956 157.075 45.956Z" fill="white"/>
<path d="M172.693 50.69C172.693 51.002 172.675 51.332 172.639 51.68H164.755C164.815 52.652 165.145 53.414 165.745 53.966C166.357 54.506 167.095 54.776 167.959 54.776C168.667 54.776 169.255 54.614 169.723 54.29C170.203 53.954 170.539 53.51 170.731 52.958H172.495C172.231 53.906 171.703 54.68 170.911 55.28C170.119 55.868 169.135 56.162 167.959 56.162C167.023 56.162 166.183 55.952 165.439 55.532C164.707 55.112 164.131 54.518 163.711 53.75C163.291 52.97 163.081 52.07 163.081 51.05C163.081 50.03 163.285 49.136 163.693 48.368C164.101 47.6 164.671 47.012 165.403 46.604C166.147 46.184 166.999 45.974 167.959 45.974C168.895 45.974 169.723 46.178 170.443 46.586C171.163 46.994 171.715 47.558 172.099 48.278C172.495 48.986 172.693 49.79 172.693 50.69ZM171.001 50.348C171.001 49.724 170.863 49.19 170.587 48.746C170.311 48.29 169.933 47.948 169.453 47.72C168.985 47.48 168.463 47.36 167.887 47.36C167.059 47.36 166.351 47.624 165.763 48.152C165.187 48.68 164.857 49.412 164.773 50.348H171.001Z" fill="white"/>
<path d="M178.347 56.162C177.591 56.162 176.913 56.036 176.313 55.784C175.713 55.52 175.239 55.16 174.891 54.704C174.543 54.236 174.351 53.702 174.315 53.102H176.007C176.055 53.594 176.283 53.996 176.691 54.308C177.111 54.62 177.657 54.776 178.329 54.776C178.953 54.776 179.445 54.638 179.805 54.362C180.165 54.086 180.345 53.738 180.345 53.318C180.345 52.886 180.153 52.568 179.769 52.364C179.385 52.148 178.791 51.938 177.987 51.734C177.255 51.542 176.655 51.35 176.187 51.158C175.731 50.954 175.335 50.66 174.999 50.276C174.675 49.88 174.513 49.364 174.513 48.728C174.513 48.224 174.663 47.762 174.963 47.342C175.263 46.922 175.689 46.592 176.241 46.352C176.793 46.1 177.423 45.974 178.131 45.974C179.223 45.974 180.105 46.25 180.777 46.802C181.449 47.354 181.809 48.11 181.857 49.07H180.219C180.183 48.554 179.973 48.14 179.589 47.828C179.217 47.516 178.713 47.36 178.077 47.36C177.489 47.36 177.021 47.486 176.673 47.738C176.325 47.99 176.151 48.32 176.151 48.728C176.151 49.052 176.253 49.322 176.457 49.538C176.673 49.742 176.937 49.91 177.249 50.042C177.573 50.162 178.017 50.3 178.581 50.456C179.289 50.648 179.865 50.84 180.309 51.032C180.753 51.212 181.131 51.488 181.443 51.86C181.767 52.232 181.935 52.718 181.947 53.318C181.947 53.858 181.797 54.344 181.497 54.776C181.197 55.208 180.771 55.55 180.219 55.802C179.679 56.042 179.055 56.162 178.347 56.162Z" fill="white"/>
<path d="M18.9039 5.296L15.5759 22H14.0399L14.6799 18.736C13.8693 19.8027 12.8559 20.6347 11.6399 21.232C10.4453 21.8293 9.11194 22.128 7.63994 22.128C5.46394 22.128 3.71461 21.5093 2.39194 20.272C1.09061 19.0133 0.439941 17.3173 0.439941 15.184C0.439941 13.2853 0.845275 11.5787 1.65594 10.064C2.46661 8.528 3.58661 7.33333 5.01594 6.48C6.46661 5.60533 8.08794 5.168 9.87994 5.168C11.6079 5.168 13.0373 5.54133 14.1679 6.288C15.2986 7.03467 16.0666 8.09067 16.4719 9.456L17.3039 5.296H18.9039ZM7.95994 20.688C9.45328 20.688 10.7866 20.3253 11.9599 19.6C13.1546 18.8747 14.0933 17.872 14.7759 16.592C15.4586 15.2907 15.7999 13.8293 15.7999 12.208C15.7999 10.4373 15.2773 9.06133 14.2319 8.08C13.2079 7.09867 11.7573 6.608 9.87994 6.608C8.38661 6.608 7.04261 6.98133 5.84794 7.728C4.67461 8.45333 3.74661 9.46667 3.06394 10.768C2.38127 12.048 2.03994 13.488 2.03994 15.088C2.03994 16.8587 2.55194 18.2347 3.57594 19.216C4.62127 20.1973 6.08261 20.688 7.95994 20.688Z" fill="white"/>
</g>
</svg>
