<svg width="17" height="17" viewBox="0 0 17 17" fill="none" xmlns="http://www.w3.org/2000/svg">
<g id="dollar-sign" clip-path="url(#clip0_0_1757)">
<path id="Vector" d="M8.05261 0.671021V15.4342" stroke="#3F5E94" stroke-width="1.34211" stroke-linecap="round" stroke-linejoin="round"/>
<path id="Vector_2" d="M11.4079 3.35515H6.37505C5.75214 3.35515 5.15474 3.6026 4.71428 4.04306C4.27382 4.48353 4.02637 5.08092 4.02637 5.70383C4.02637 6.32674 4.27382 6.92414 4.71428 7.3646C5.15474 7.80507 5.75214 8.05252 6.37505 8.05252H9.73031C10.3532 8.05252 10.9506 8.29997 11.3911 8.74043C11.8315 9.18089 12.079 9.77829 12.079 10.4012C12.079 11.0241 11.8315 11.6215 11.3911 12.062C10.9506 12.5024 10.3532 12.7499 9.73031 12.7499H4.02637" stroke="#3F5E94" stroke-width="1.34211" stroke-linecap="round" stroke-linejoin="round"/>
</g>
<defs>
<clipPath id="clip0_0_1757">
<rect width="16.1053" height="16.1053" fill="white"/>
</clipPath>
</defs>
</svg>
