<svg width="17" height="15" viewBox="0 0 17 15" fill="none" xmlns="http://www.w3.org/2000/svg">
<g id="Group 427320024">
<path id="Path" fill-rule="evenodd" clip-rule="evenodd" d="M7.23347 11.4267L13.3644 5.29579C13.6468 5.0134 14.104 5.0134 14.3856 5.29579L15.1642 6.07435C15.4466 6.35674 15.4466 6.8139 15.1642 7.09557L9.0318 13.228C8.84186 13.4179 8.6028 13.5508 8.34208 13.6122L7.15186 13.8931C6.8023 13.9755 6.48814 13.662 6.56975 13.3117L6.84853 12.1193C6.90992 11.8572 7.04353 11.6174 7.23347 11.4267V11.4267Z" stroke="#0F6ECD" stroke-width="1.5" stroke-linecap="round" stroke-linejoin="round"/>
<path id="Path_2" d="M12.216 6.43835L14.0216 8.24391" stroke="#0F6ECD" stroke-width="1.5" stroke-linecap="round" stroke-linejoin="round"/>
<path id="Path_3" d="M4.61111 14H4.50206C2.56794 14 1 12.4321 1 10.4979V10.4979C1 9.11417 1.81467 7.85967 3.08 7.29778L5.94 6.02667C6.889 5.60489 7.5 4.66456 7.5 3.62672V3.62672C7.5 2.17578 6.32422 1 4.87328 1H4.61111" stroke="#0D5EAF" stroke-width="1.5" stroke-linecap="round" stroke-linejoin="round"/>
</g>
</svg>
