<svg width="32" height="32" viewBox="0 0 32 32" fill="none" xmlns="http://www.w3.org/2000/svg">
<g id="file-text">
<path id="Vector" d="M18.6667 2.66672H8.00001C7.29277 2.66672 6.61449 2.94767 6.11439 3.44777C5.61429 3.94786 5.33334 4.62614 5.33334 5.33338V26.6667C5.33334 27.374 5.61429 28.0522 6.11439 28.5523C6.61449 29.0524 7.29277 29.3334 8.00001 29.3334H24C24.7073 29.3334 25.3855 29.0524 25.8856 28.5523C26.3857 28.0522 26.6667 27.374 26.6667 26.6667V10.6667L18.6667 2.66672Z" stroke="#2E96C9" stroke-width="2" stroke-linecap="round" stroke-linejoin="round"/>
<path id="Vector_2" d="M18.6667 2.66672V10.6667H26.6667" stroke="#2E96C9" stroke-width="2" stroke-linecap="round" stroke-linejoin="round"/>
<path id="Vector_3" d="M21.3334 17.3334H10.6667" stroke="#2E96C9" stroke-width="2" stroke-linecap="round" stroke-linejoin="round"/>
<path id="Vector_4" d="M21.3334 22.6667H10.6667" stroke="#2E96C9" stroke-width="2" stroke-linecap="round" stroke-linejoin="round"/>
<path id="Vector_5" d="M13.3334 12H12H10.6667" stroke="#2E96C9" stroke-width="2" stroke-linecap="round" stroke-linejoin="round"/>
</g>
</svg>
