<svg width="24" height="24" viewBox="0 0 24 24" fill="none" xmlns="http://www.w3.org/2000/svg">
<g id="icon">
<g id="Group">
<g id="Group_2">
<path id="Path" fill-rule="evenodd" clip-rule="evenodd" d="M19 21H5C3.895 21 3 20.105 3 19V5C3 3.895 3.895 3 5 3H19C20.105 3 21 3.895 21 5V19C21 20.105 20.105 21 19 21Z" stroke="#0D5EAF" stroke-width="1.5" stroke-linecap="round" stroke-linejoin="round"/>
<path id="Path_2" d="M17 8H11" stroke="#0D5EAF" stroke-width="1.5" stroke-linecap="round" stroke-linejoin="round"/>
<path id="Path_3" d="M11 12H17" stroke="#0D5EAF" stroke-width="1.5" stroke-linecap="round" stroke-linejoin="round"/>
<path id="Path_4" d="M11 16H17" stroke="#0D5EAF" stroke-width="1.5" stroke-linecap="round" stroke-linejoin="round"/>
<path id="Path_5" d="M6.998 7.75C6.86 7.75 6.748 7.862 6.75 8C6.75 8.138 6.862 8.25 7 8.25C7.138 8.25 7.25 8.138 7.25 8C7.25 7.862 7.138 7.75 6.998 7.75" stroke="#0D5EAF" stroke-width="1.5" stroke-linecap="round" stroke-linejoin="round"/>
<path id="Path_6" d="M6.998 11.75C6.86 11.75 6.748 11.862 6.75 12C6.75 12.138 6.862 12.25 7 12.25C7.138 12.25 7.25 12.138 7.25 12C7.25 11.862 7.138 11.75 6.998 11.75" stroke="#0D5EAF" stroke-width="1.5" stroke-linecap="round" stroke-linejoin="round"/>
<path id="Path_7" d="M6.998 15.75C6.86 15.75 6.748 15.862 6.75 16C6.75 16.138 6.862 16.25 7 16.25C7.138 16.25 7.25 16.138 7.25 16C7.25 15.862 7.138 15.75 6.998 15.75" stroke="#0D5EAF" stroke-width="1.5" stroke-linecap="round" stroke-linejoin="round"/>
</g>
</g>
</g>
</svg>
