<svg width="24" height="24" viewBox="0 0 24 24" fill="none" xmlns="http://www.w3.org/2000/svg">
<path d="M14.1226 9.87951C15.2943 11.0512 15.2943 12.9509 14.1226 14.1226C12.9509 15.2943 11.0511 15.2943 9.87944 14.1226C8.70774 12.9509 8.70774 11.0512 9.87944 9.87951C11.0511 8.70781 12.9509 8.70781 14.1226 9.87951" stroke="#0D5EAF" stroke-width="1.8" stroke-linecap="round" stroke-linejoin="round"/>
<path fill-rule="evenodd" clip-rule="evenodd" d="M16.1815 18.7267V18.7267C16.6845 19.2298 17.5016 19.2298 18.0047 18.7267L18.7267 18.0047C19.2298 17.5016 19.2298 16.6845 18.7267 16.1815V16.1815C18.3447 15.7994 18.2327 15.2264 18.4427 14.7283C18.4647 14.6753 18.4867 14.6223 18.5077 14.5683C18.6907 14.1022 19.1448 13.8022 19.6448 13.8022H19.7119C20.4239 13.8022 21.001 13.2251 21.001 12.5131V11.4919C21.001 10.7799 20.4239 10.2028 19.7119 10.2028H19.6448C19.1448 10.2028 18.6907 9.90177 18.5077 9.43672C18.4867 9.38271 18.4647 9.3297 18.4427 9.2767C18.2327 8.77864 18.3447 8.20558 18.7267 7.82354V7.82354C19.2298 7.32048 19.2298 6.50339 18.7267 6.00033L18.0047 5.27825C17.5016 4.7752 16.6845 4.7752 16.1815 5.27825V5.27825C15.7994 5.6603 15.2264 5.77231 14.7283 5.56228C14.6753 5.54028 14.6223 5.51828 14.5683 5.49728C14.1022 5.31126 13.8012 4.85621 13.8012 4.35615V4.28914C13.8012 3.57706 13.2241 3 12.5121 3H11.4909C10.7779 3 10.2008 3.57706 10.2008 4.28914V4.35615C10.2008 4.85621 9.89977 5.31026 9.43471 5.49328C9.38071 5.51528 9.3277 5.53628 9.2747 5.55928C8.77664 5.76931 8.20358 5.6573 7.82154 5.27525V5.27525C7.31848 4.7722 6.50139 4.7722 5.99833 5.27525L5.27525 5.99733C4.7722 6.50039 4.7722 7.31748 5.27525 7.82054V7.82054C5.6573 8.20258 5.76931 8.77564 5.55928 9.2737C5.53628 9.3277 5.51528 9.38071 5.49428 9.43472C5.31126 9.89977 4.85621 10.2008 4.35615 10.2008H4.28914C3.57706 10.2008 3 10.7779 3 11.4899V12.5111C3 13.2241 3.57706 13.8012 4.28914 13.8012H4.35615C4.85621 13.8012 5.31026 14.1022 5.49328 14.5673C5.51428 14.6213 5.53628 14.6743 5.55828 14.7273C5.76831 15.2254 5.6563 15.7984 5.27425 16.1805V16.1805C4.7712 16.6835 4.7712 17.5006 5.27425 18.0037L5.99633 18.7257C6.49939 19.2288 7.31648 19.2288 7.81954 18.7257V18.7257C8.20158 18.3437 8.77464 18.2317 9.2727 18.4417C9.3257 18.4637 9.37871 18.4857 9.43271 18.5067C9.89877 18.6897 10.1988 19.1438 10.1988 19.6439V19.7109C10.1988 20.4229 10.7759 21 11.4879 21H12.5091C13.2211 21 13.7982 20.4229 13.7982 19.7109V19.6439C13.7982 19.1438 14.0992 18.6897 14.5643 18.5067C14.6183 18.4857 14.6713 18.4637 14.7243 18.4417C15.2254 18.2327 15.7984 18.3447 16.1815 18.7267V18.7267Z" stroke="#0D5EAF" stroke-width="1.8" stroke-linecap="round" stroke-linejoin="round"/>
</svg>
