<svg width="210" height="36" viewBox="0 0 210 36" fill="none" xmlns="http://www.w3.org/2000/svg">
<path d="M74.3732 17.1847L80.719 0.454943H83.9802L90.326 17.1863H86.8146L85.3591 12.9464H79.1384L77.6829 17.1863H74.3732V17.1847ZM80.0171 10.3371H84.457L82.2496 3.84123L80.0171 10.3371Z" fill="#4F4F4F"/>
<path d="M92.0816 21.2745L93.4105 19.092C94.2969 19.6939 95.4429 19.9957 96.8468 19.9957C97.616 19.9957 98.2601 19.758 98.7776 19.2812C99.2951 18.8044 99.5546 18.1556 99.5546 17.3379V16.0591C99.1528 16.3764 98.7135 16.6453 98.2382 16.8611C97.7614 17.0784 97.1298 17.1878 96.345 17.1878C95.224 17.1878 94.2594 16.9408 93.448 16.4483C92.6366 15.9559 92.0175 15.2774 91.5923 14.4159C91.1655 13.5545 90.9529 12.5727 90.9529 11.469C90.9529 10.298 91.2249 9.23646 91.7674 8.28279C92.3099 7.32913 93.0806 6.57245 94.0749 6.01276C95.0692 5.45307 96.2449 5.17167 97.5988 5.17167C98.6181 5.17167 99.564 5.25609 100.433 5.42181C101.302 5.58909 101.997 5.76419 102.516 5.94867V17.3864C102.516 18.4729 102.273 19.4016 101.789 20.1707C101.304 20.9399 100.638 21.5215 99.7938 21.9139C98.9496 22.3063 97.9834 22.5033 96.8968 22.5033C95.6758 22.5033 94.7065 22.3939 93.9874 22.1766C93.2698 21.9593 92.6335 21.6591 92.0816 21.2745ZM99.5577 12.1928V7.9795C99.3232 7.89664 99.0809 7.83254 98.8307 7.79189C98.5806 7.74968 98.1866 7.72936 97.652 7.72936C96.8499 7.72936 96.1761 7.90133 95.6321 8.24371C95.088 8.58609 94.6753 9.03322 94.3907 9.58509C94.1062 10.137 93.9639 10.7389 93.9639 11.3908C93.9639 12.2944 94.1891 13.0542 94.6409 13.6733C95.0927 14.2924 95.8197 14.602 96.8234 14.602C98.6463 14.602 99.5577 13.7984 99.5577 12.1928Z" fill="#4F4F4F"/>
<path d="M114.884 13.6733L116.489 15.4791C116.439 15.5291 116.302 15.6667 116.075 15.8934C115.85 16.1185 115.523 16.3624 115.096 16.6203C114.669 16.8798 114.127 17.105 113.466 17.2973C112.804 17.4896 112.015 17.5865 111.096 17.5865C109.842 17.5865 108.75 17.3145 107.822 16.772C106.893 16.2295 106.171 15.4712 105.652 14.5019C105.133 13.5326 104.875 12.4195 104.875 11.1657C104.875 10.0119 105.13 8.9707 105.639 8.04205C106.149 7.1134 106.851 6.37861 107.747 5.83455C108.641 5.29206 109.674 5.02003 110.844 5.02003C111.93 5.02003 112.842 5.21232 113.578 5.59692C114.315 5.98151 114.907 6.49586 115.359 7.13997C115.811 7.78409 116.136 8.50637 116.338 9.30995C116.538 10.112 116.639 10.9327 116.639 11.7676V12.1944H107.859C107.859 12.7635 108.022 13.2606 108.349 13.6874C108.675 14.1142 109.088 14.4488 109.59 14.6911C110.092 14.9334 110.601 15.0554 111.121 15.0554C111.89 15.0554 112.524 14.9678 113.026 14.7927C113.528 14.6176 113.93 14.4206 114.23 14.2033C114.532 13.9829 114.749 13.8078 114.884 13.6733ZM106.756 3.63956L109.365 0.0781777H112.149L114.759 3.63956H112.149L110.745 1.7338L109.366 3.63956H106.756ZM107.834 10.0619H113.603C113.603 9.66015 113.498 9.26305 113.289 8.87064C113.079 8.47823 112.775 8.15148 112.373 7.89196C111.971 7.63244 111.461 7.50268 110.842 7.50268C110.19 7.50268 109.642 7.63244 109.199 7.89196C108.755 8.15148 108.417 8.47823 108.183 8.87064C107.952 9.26305 107.834 9.66015 107.834 10.0619Z" fill="#4F4F4F"/>
<path d="M118.922 5.42025H121.756L121.831 6.74913C122.133 6.41456 122.568 6.06749 123.135 5.70792C123.704 5.34834 124.448 5.16855 125.368 5.16855C126.823 5.16855 127.939 5.60786 128.716 6.48492C129.493 7.36354 129.883 8.54545 129.883 10.0338V17.1831H126.923V10.0619C126.923 9.32558 126.718 8.7487 126.309 8.33127C125.899 7.91385 125.368 7.70436 124.716 7.70436C123.896 7.70436 123.22 8.00609 122.683 8.60799C122.149 9.20989 121.881 9.94625 121.881 10.8155V17.1863H118.922V5.42025Z" fill="#4F4F4F"/>
<path d="M141.347 13.7234L143.103 15.6291C142.551 16.2154 141.894 16.6828 141.133 17.033C140.371 17.3848 139.497 17.5599 138.511 17.5599C137.173 17.5599 136.031 17.2972 135.087 16.7704C134.143 16.2435 133.424 15.5087 132.93 14.5629C132.436 13.6186 132.19 12.5274 132.19 11.2892C132.19 10.1526 132.458 9.10669 132.992 8.15303C133.527 7.19937 134.268 6.43956 135.212 5.87049C136.157 5.30142 137.257 5.01689 138.511 5.01689C139.465 5.01689 140.334 5.18886 141.12 5.53124C141.907 5.87362 142.576 6.33794 143.128 6.92265L141.247 8.82841C140.93 8.44382 140.54 8.14365 140.081 7.92478C139.621 7.70747 139.099 7.59803 138.513 7.59803C137.761 7.59803 137.137 7.77313 136.644 8.12489C136.15 8.47665 135.783 8.93159 135.541 9.49128C135.298 10.051 135.176 10.6498 135.176 11.2845C135.176 11.8708 135.297 12.4476 135.541 13.0151C135.783 13.5842 136.15 14.0517 136.644 14.4206C137.137 14.788 137.761 14.9725 138.513 14.9725C139.097 14.9725 139.637 14.8599 140.131 14.6332C140.623 14.4128 141.028 14.108 141.347 13.7234Z" fill="#4F4F4F"/>
<path d="M145.108 0.454943H148.27V3.56607H145.108V0.454943ZM145.21 17.1847V5.42024H148.17V17.1847H145.21Z" fill="#4F4F4F"/>
<path d="M158.227 17.1847L158.152 16.081C157.834 16.4656 157.345 16.8079 156.684 17.1097C156.022 17.4114 155.3 17.5615 154.514 17.5615C153.877 17.5615 153.247 17.427 152.62 17.1597C151.994 16.8924 151.475 16.4749 151.065 15.9059C150.655 15.3368 150.451 14.6176 150.451 13.7484C150.451 12.4101 150.927 11.3736 151.881 10.6373C152.835 9.90092 154.079 9.53352 155.619 9.53352C155.904 9.53352 156.241 9.5429 156.635 9.55854C157.028 9.57573 157.534 9.60075 158.153 9.63358V9.35842C158.153 8.77372 157.919 8.31409 157.451 7.97952C156.982 7.64496 156.373 7.47768 155.621 7.47768C154.784 7.47768 154.115 7.58711 153.613 7.80442C153.111 8.02173 152.669 8.25624 152.284 8.50638L150.93 6.499C151.248 6.26449 151.625 6.03467 152.059 5.80955C152.494 5.58442 153.029 5.39525 153.665 5.24517C154.3 5.09508 155.086 5.02004 156.022 5.02004C157.528 5.02004 158.732 5.41714 159.634 6.21134C160.537 7.00553 160.988 8.02955 160.988 9.28338V17.1847H158.227ZM158.152 13.0214V11.8677C157.767 11.8348 157.35 11.8098 156.898 11.7926C156.446 11.777 156.104 11.7676 155.869 11.7676C154.916 11.7676 154.246 11.9552 153.862 12.332C153.477 12.7088 153.285 13.1387 153.285 13.6233C153.285 14.1252 153.465 14.5176 153.824 14.8021C154.184 15.0867 154.715 15.2289 155.417 15.2289C155.885 15.2289 156.324 15.1289 156.734 14.9272C157.143 14.7271 157.483 14.4597 157.75 14.1252C158.019 13.7906 158.152 13.4232 158.152 13.0214Z" fill="#4F4F4F"/>
<path d="M167.107 17.1847L162.768 0.454943H166.23L168.964 12.9714L172.2 0.931775H175.06L178.321 12.9714L181.03 0.454943H184.341L179.952 17.1863H176.64L173.529 6.12377L170.368 17.1863H167.107V17.1847Z" fill="#4F4F4F"/>
<path d="M194.374 13.6734L195.979 15.4791C195.929 15.5291 195.792 15.6667 195.565 15.8934C195.34 16.1185 195.013 16.3624 194.586 16.6203C194.16 16.8799 193.617 17.105 192.956 17.2973C192.294 17.4896 191.505 17.5865 190.586 17.5865C189.332 17.5865 188.241 17.3145 187.312 16.772C186.383 16.2295 185.661 15.4712 185.142 14.502C184.623 13.5327 184.365 12.4195 184.365 11.1657C184.365 10.0119 184.62 8.97071 185.129 8.04206C185.639 7.11341 186.341 6.37862 187.237 5.83456C188.131 5.29207 189.165 5.02004 190.335 5.02004C191.422 5.02004 192.333 5.21233 193.07 5.59693C193.806 5.98152 194.399 6.49587 194.851 7.13999C195.302 7.7841 195.628 8.50638 195.829 9.30996C196.029 10.112 196.131 10.9328 196.131 11.7676V12.1944H187.351C187.351 12.7635 187.514 13.2606 187.84 13.6874C188.167 14.1142 188.58 14.4488 189.082 14.6911C189.583 14.9334 190.093 15.0554 190.612 15.0554C191.381 15.0554 192.016 14.9678 192.518 14.7927C193.02 14.6176 193.422 14.4207 193.722 14.2033C194.022 13.9829 194.239 13.8078 194.374 13.6734ZM187.324 10.0619H193.093C193.093 9.66016 192.989 9.26306 192.779 8.87065C192.57 8.47824 192.265 8.15149 191.863 7.89197C191.461 7.63245 190.951 7.50269 190.332 7.50269C189.68 7.50269 189.132 7.63245 188.689 7.89197C188.245 8.15149 187.908 8.47824 187.673 8.87065C187.442 9.26306 187.324 9.66016 187.324 10.0619Z" fill="#4F4F4F"/>
<path d="M198.412 16.8095V0.454943H201.371V6.22382C201.572 6.02371 201.961 5.79702 202.538 5.54688C203.115 5.29674 203.796 5.1701 204.583 5.1701C205.719 5.1701 206.69 5.44213 207.492 5.98463C208.294 6.52868 208.91 7.25097 209.335 8.1546C209.761 9.05824 209.975 10.0604 209.975 11.1641C209.975 12.3351 209.703 13.4044 209.16 14.3753C208.616 15.3462 207.852 16.1232 206.865 16.7079C205.879 17.2926 204.7 17.5865 203.329 17.5865C202.308 17.5865 201.368 17.5021 200.507 17.3363C199.645 17.1691 198.947 16.9924 198.412 16.8095ZM201.371 10.3371V14.7771C201.606 14.8443 201.848 14.9022 202.098 14.9522C202.349 15.0022 202.743 15.0272 203.277 15.0272C204.079 15.0272 204.753 14.8474 205.297 14.4879C205.84 14.1283 206.254 13.6608 206.538 13.0839C206.823 12.5071 206.965 11.8926 206.965 11.2407C206.965 10.6388 206.865 10.0697 206.664 9.53507C206.463 9.00039 206.154 8.5689 205.735 8.24371C205.317 7.91697 204.773 7.75437 204.104 7.75437C203.218 7.75437 202.541 7.98419 202.072 8.44383C201.606 8.90346 201.371 9.53507 201.371 10.3371Z" fill="#4F4F4F"/>
<path d="M74.1449 35.8093V26.7213H79.8669V27.8798H75.4519V30.5235H78.7757V31.6945H75.4519V34.6367H80.1936V35.8077H74.1449V35.8093Z" fill="#4F4F4F"/>
<path d="M81.0942 35.0323L81.843 34.2146C82.0697 34.4413 82.3417 34.6227 82.6607 34.7603C82.978 34.8963 83.347 34.9651 83.7644 34.9651C84.1725 34.9651 84.5133 34.8994 84.7869 34.7681C85.0589 34.6367 85.1949 34.4304 85.1949 34.1474C85.1949 33.9473 85.1402 33.7894 85.0308 33.6706C84.9213 33.5533 84.7353 33.4455 84.4726 33.3501C84.2084 33.2547 83.8457 33.1531 83.3829 33.0437C83.0562 32.9624 82.7373 32.8514 82.4293 32.7091C82.1197 32.5684 81.8665 32.373 81.6664 32.1228C81.4662 31.8727 81.3662 31.5491 81.3662 31.1488C81.3662 30.7408 81.4866 30.3953 81.7273 30.1139C81.9681 29.8325 82.2792 29.6214 82.6607 29.4807C83.0421 29.34 83.4424 29.2697 83.8598 29.2697C84.396 29.2697 84.8588 29.34 85.2496 29.4807C85.6405 29.6214 85.9766 29.82 86.258 30.0732L85.5904 30.9175C85.3997 30.7455 85.1605 30.6001 84.8744 30.4813C84.5883 30.364 84.2537 30.3046 83.8723 30.3046C83.4814 30.3046 83.1688 30.3687 82.9327 30.4953C82.6966 30.622 82.5778 30.8315 82.5778 31.1223C82.5778 31.3943 82.7373 31.5975 83.0546 31.7289C83.372 31.8602 83.7816 31.9853 84.2803 32.1041C84.6806 32.1947 85.0417 32.3151 85.3638 32.4652C85.6858 32.6153 85.9453 32.817 86.1408 33.0718C86.3362 33.3266 86.4331 33.6581 86.4331 34.0661C86.4331 34.4835 86.308 34.8353 86.0579 35.1214C85.8078 35.4075 85.4826 35.6248 85.0839 35.7749C84.6837 35.925 84.2522 36 83.7894 36C82.5919 36 81.6929 35.678 81.0942 35.0323Z" fill="#4F4F4F"/>
<path d="M92.6194 34.1474L93.3683 34.9369C93.0869 35.2543 92.7367 35.5122 92.3193 35.7061C91.9018 35.9015 91.425 35.9985 90.8888 35.9985C90.2071 35.9985 89.6193 35.8531 89.1237 35.5623C88.6281 35.2715 88.2451 34.8744 87.9731 34.3694C87.701 33.866 87.565 33.286 87.565 32.6325C87.565 32.015 87.7057 31.4521 87.9871 30.9425C88.2685 30.4344 88.6609 30.0279 89.1659 29.723C89.6693 29.4182 90.2446 29.2665 90.8888 29.2665C91.425 29.2665 91.8971 29.3619 92.3052 29.5526C92.7132 29.7434 93.0634 30.0029 93.3542 30.3296L92.5506 31.1066C92.3599 30.8706 92.1285 30.6845 91.8565 30.5485C91.5845 30.4125 91.2608 30.3437 90.8888 30.3437C90.4526 30.3437 90.0774 30.45 89.7647 30.6642C89.452 30.8784 89.2128 31.1567 89.0487 31.5022C88.8845 31.8477 88.8032 32.2244 88.8032 32.6325C88.8032 33.0233 88.8876 33.3939 89.0549 33.7425C89.2222 34.0927 89.4614 34.3757 89.7709 34.5945C90.0789 34.8118 90.4526 34.9213 90.8888 34.9213C91.2608 34.9213 91.5954 34.8509 91.8909 34.7102C92.1864 34.5711 92.4287 34.3835 92.6194 34.1474Z" fill="#4F4F4F"/>
<path d="M97.2517 36C96.606 36 96.0307 35.8484 95.521 35.5435C95.0129 35.2387 94.6143 34.8306 94.3282 34.3178C94.0421 33.805 93.8983 33.2438 93.8983 32.6356C93.8983 32.0181 94.0421 31.4553 94.3282 30.9456C94.6143 30.4375 95.0114 30.031 95.521 29.7262C96.0292 29.4213 96.606 29.2697 97.2517 29.2697C97.8958 29.2697 98.4712 29.4213 98.9746 29.7262C99.478 30.031 99.8766 30.4375 100.167 30.9456C100.458 31.4537 100.604 32.0181 100.604 32.6356C100.604 33.2438 100.458 33.805 100.167 34.3178C99.8766 34.8306 99.4795 35.2402 98.9746 35.5435C98.4712 35.8484 97.8974 36 97.2517 36ZM97.2517 34.9369C97.6973 34.9369 98.0756 34.8259 98.3899 34.6024C98.7025 34.3804 98.9433 34.0911 99.1121 33.7378C99.2794 33.3829 99.3638 33.0155 99.3638 32.6341C99.3638 32.2526 99.2794 31.8852 99.1121 31.5303C98.9433 31.1754 98.701 30.8878 98.3836 30.6658C98.0662 30.4438 97.6895 30.3312 97.2533 30.3312C96.8171 30.3312 96.4403 30.4422 96.123 30.6658C95.8056 30.8878 95.5617 31.1739 95.3944 31.5241C95.2256 31.8743 95.1427 32.2448 95.1427 32.6341C95.1427 33.0155 95.2287 33.3814 95.4022 33.7315C95.5742 34.0817 95.8181 34.3694 96.1308 34.5961C96.4419 34.8244 96.8171 34.9369 97.2517 34.9369Z" fill="#4F4F4F"/>
<path d="M101.979 35.8093V26.7213H103.205V35.8093H101.979Z" fill="#4F4F4F"/>
<path d="M108.874 35.8093L108.847 35.0464C108.621 35.3559 108.31 35.5889 107.914 35.7483C107.518 35.9078 107.121 35.986 106.721 35.986C106.376 35.986 106.033 35.9219 105.692 35.7952C105.352 35.6686 105.07 35.4591 104.848 35.1683C104.626 34.8775 104.514 34.4914 104.514 34.0098C104.514 33.3282 104.754 32.7841 105.236 32.3745C105.717 31.9665 106.402 31.7617 107.293 31.7617C107.493 31.7617 107.7 31.7679 107.914 31.782C108.127 31.7961 108.32 31.8086 108.492 31.8227C108.664 31.8367 108.779 31.8477 108.833 31.8571V31.6257C108.833 31.1535 108.689 30.8143 108.403 30.611C108.117 30.4062 107.73 30.3046 107.239 30.3046C106.766 30.3046 106.387 30.3703 106.1 30.5016C105.814 30.6329 105.575 30.7674 105.384 30.9034L104.812 30.0717C105.039 29.8903 105.353 29.7137 105.752 29.5401C106.152 29.3682 106.691 29.2806 107.373 29.2806C108.181 29.2806 108.822 29.4776 109.294 29.8731C109.767 30.2687 110.003 30.8299 110.003 31.5553V35.248C110.003 35.3121 110.003 35.3887 110.003 35.4794C110.003 35.5701 110.007 35.6795 110.017 35.8062H108.874V35.8093ZM108.833 33.5346V32.8123C108.788 32.7935 108.683 32.7779 108.521 32.7654C108.356 32.7513 108.174 32.7388 107.969 32.7247C107.764 32.7107 107.567 32.7044 107.376 32.7044C106.921 32.7044 106.574 32.7701 106.333 32.9014C106.093 33.0327 105.928 33.1969 105.843 33.3923C105.757 33.5877 105.713 33.78 105.713 33.9708C105.713 34.3069 105.83 34.5664 106.068 34.7478C106.304 34.9291 106.63 35.0198 107.048 35.0198C107.365 35.0198 107.659 34.9494 107.926 34.8087C108.194 34.668 108.413 34.4835 108.58 34.2569C108.749 34.0286 108.833 33.7878 108.833 33.5346Z" fill="#4F4F4F"/>
<path d="M112.907 35.8093H111.682V30.0873C111.682 30.0232 111.682 29.9513 111.682 29.87C111.682 29.7887 111.677 29.6574 111.668 29.4745H112.839L112.879 30.4969C112.979 30.3515 113.118 30.1921 113.295 30.0201C113.472 29.8481 113.697 29.698 113.969 29.5698C114.241 29.4432 114.568 29.3791 114.949 29.3791C115.085 29.3791 115.21 29.3885 115.324 29.4057C115.439 29.4244 115.545 29.451 115.645 29.487L115.373 30.6314C115.209 30.5673 115.001 30.536 114.746 30.536C114.4 30.536 114.089 30.6251 113.813 30.8018C113.536 30.9784 113.315 31.2129 113.151 31.5037C112.987 31.7945 112.906 32.1166 112.906 32.4715V35.8093H112.907Z" fill="#4F4F4F"/>
<path d="M12.6712 6.3614L30.2655 24.3043L28.5583 29.4244L15.1445 15.7823L9.63356 32.3135L4.56038 32.2698L12.6712 6.3614ZM11.1407 1.19222e-06L0 35.5904L12.0505 35.6967L16.5984 22.0546L30.0122 35.6967L34.1052 23.4195L11.1407 1.19222e-06Z" fill="#307FE2"/>
<path d="M53.4942 3.38316L58.5674 3.42693L50.4581 29.3337L32.8638 11.3908L34.571 6.27073L47.9849 19.9128L53.4942 3.38316ZM51.0788 0L46.5309 13.6421L33.1171 0L29.0242 12.2772L51.9871 35.6951L63.1278 0.10631L51.0788 0Z" fill="#F2B025"/>
</svg>
