<svg width="24" height="24" viewBox="0 0 24 24" fill="none" xmlns="http://www.w3.org/2000/svg">
<g id="report">
<g id="Vector">
<mask id="path-1-inside-1_26_379" fill="white">
<path d="M11.2969 8.48438C11.2969 8.09605 11.6117 7.78125 12 7.78125C12.3883 7.78125 12.7031 8.09605 12.7031 8.48438V12.7031C12.7031 13.0915 12.3883 13.4062 12 13.4062C11.6117 13.4062 11.2969 13.0915 11.2969 12.7031V8.48438Z"/>
</mask>
<path d="M11.2969 8.48438C11.2969 8.09605 11.6117 7.78125 12 7.78125C12.3883 7.78125 12.7031 8.09605 12.7031 8.48438V12.7031C12.7031 13.0915 12.3883 13.4062 12 13.4062C11.6117 13.4062 11.2969 13.0915 11.2969 12.7031V8.48438Z" fill="#0F6ECD"/>
<path d="M11.2031 8.48438V12.7031H14.2031V8.48438H11.2031ZM12.7969 12.7031V8.48438H9.79688V12.7031H12.7969ZM12 11.9062C12.4401 11.9062 12.7969 12.263 12.7969 12.7031H9.79688C9.79688 13.9199 10.7832 14.9062 12 14.9062V11.9062ZM11.2031 12.7031C11.2031 12.263 11.5599 11.9062 12 11.9062V14.9062C13.2168 14.9062 14.2031 13.9199 14.2031 12.7031H11.2031ZM12 9.28125C11.5599 9.28125 11.2031 8.92448 11.2031 8.48438H14.2031C14.2031 7.26762 13.2168 6.28125 12 6.28125V9.28125ZM12 6.28125C10.7832 6.28125 9.79688 7.26762 9.79688 8.48438H12.7969C12.7969 8.92448 12.4401 9.28125 12 9.28125V6.28125Z" fill="#0D5EAF" mask="url(#path-1-inside-1_26_379)"/>
</g>
<g id="Vector_2">
<mask id="path-3-inside-2_26_379" fill="white">
<path d="M14.8125 11.2969C14.8125 10.9085 15.1273 10.5938 15.5156 10.5938C15.904 10.5938 16.2188 10.9085 16.2188 11.2969V12.7031C16.2188 13.0915 15.904 13.4062 15.5156 13.4062C15.1273 13.4062 14.8125 13.0915 14.8125 12.7031V11.2969Z"/>
</mask>
<path d="M14.8125 11.2969C14.8125 10.9085 15.1273 10.5938 15.5156 10.5938C15.904 10.5938 16.2188 10.9085 16.2188 11.2969V12.7031C16.2188 13.0915 15.904 13.4062 15.5156 13.4062C15.1273 13.4062 14.8125 13.0915 14.8125 12.7031V11.2969Z" fill="#0F6ECD"/>
<path d="M14.7188 11.2969V12.7031H17.7188V11.2969H14.7188ZM16.3125 12.7031V11.2969H13.3125V12.7031H16.3125ZM15.5156 11.9062C15.9557 11.9062 16.3125 12.263 16.3125 12.7031H13.3125C13.3125 13.9199 14.2989 14.9062 15.5156 14.9062V11.9062ZM14.7188 12.7031C14.7188 12.263 15.0755 11.9062 15.5156 11.9062V14.9062C16.7324 14.9062 17.7188 13.9199 17.7188 12.7031H14.7188ZM15.5156 12.0938C15.0755 12.0938 14.7188 11.737 14.7188 11.2969H17.7188C17.7188 10.0801 16.7324 9.09375 15.5156 9.09375V12.0938ZM15.5156 9.09375C14.2989 9.09375 13.3125 10.0801 13.3125 11.2969H16.3125C16.3125 11.737 15.9557 12.0938 15.5156 12.0938V9.09375Z" fill="#0D5EAF" mask="url(#path-3-inside-2_26_379)"/>
</g>
<path id="Vector_3" d="M7.78125 9.89063C7.78125 9.5023 8.09605 9.1875 8.48438 9.1875C8.8727 9.1875 9.1875 9.5023 9.1875 9.89062V12.7031C9.1875 13.0915 8.8727 13.4062 8.48438 13.4062C8.09605 13.4062 7.78125 13.0915 7.78125 12.7031V9.89063Z" fill="#0F6ECD"/>
<path id="Vector_4" d="M18.3281 3.5625H12.7031V2.15625H11.2969V3.5625H5.67188C5.29891 3.5625 4.94123 3.71066 4.67751 3.97438C4.41378 4.2381 4.26562 4.59579 4.26562 4.96875V14.8125C4.26562 15.1855 4.41378 15.5431 4.67751 15.8069C4.94123 16.0706 5.29891 16.2188 5.67188 16.2188H11.2969V20.4375H8.48438V21.8438H15.5156V20.4375H12.7031V16.2188H18.3281C18.7011 16.2188 19.0588 16.0706 19.3225 15.8069C19.5862 15.5431 19.7344 15.1855 19.7344 14.8125V4.96875C19.7344 4.59579 19.5862 4.2381 19.3225 3.97438C19.0588 3.71066 18.7011 3.5625 18.3281 3.5625ZM18.3281 14.8125H5.67188V4.96875H18.3281V14.8125Z" fill="#0F6ECD"/>
</g>
</svg>
