<svg width="24" height="24" viewBox="0 0 24 24" fill="none" xmlns="http://www.w3.org/2000/svg">
<g id="sair">
<path id="Union" fill-rule="evenodd" clip-rule="evenodd" d="M17.9724 4.75C18.245 4.75 18.5064 4.85828 18.6991 5.05103C18.8919 5.24377 19.0002 5.50519 19.0002 5.77778V18.2222C19.0002 18.4948 18.8919 18.7562 18.6991 18.949C18.5064 19.1417 18.245 19.25 17.9724 19.25H14.4168C14.0026 19.25 13.6668 19.5858 13.6668 20C13.6668 20.4142 14.0026 20.75 14.4168 20.75H17.9724C18.6428 20.75 19.2857 20.4837 19.7598 20.0096C20.2338 19.5356 20.5002 18.8926 20.5002 18.2222V5.77778C20.5002 5.10737 20.2338 4.46442 19.7598 3.99037C19.2857 3.51632 18.6428 3.25 17.9724 3.25H14.4168C14.0026 3.25 13.6668 3.58579 13.6668 4C13.6668 4.41421 14.0026 4.75 14.4168 4.75H17.9724ZM8.72483 7.02533C8.43193 6.73244 7.95706 6.73244 7.66417 7.02533L3.22905 11.4604C3.08783 11.5968 3 11.7882 3 12C3 12.1045 3.02136 12.2039 3.05994 12.2943C3.09648 12.3801 3.14974 12.4605 3.21972 12.5304L7.66417 16.9749C7.95706 17.2678 8.43193 17.2678 8.72483 16.9749C9.01772 16.682 9.01772 16.2071 8.72483 15.9142L5.5606 12.75H14.4167C14.8309 12.75 15.1667 12.4142 15.1667 12C15.1667 11.5858 14.8309 11.25 14.4167 11.25H5.56082L8.72483 8.08599C9.01772 7.7931 9.01772 7.31823 8.72483 7.02533Z" fill="#0D5EAF"/>
</g>
</svg>
