<svg width="18" height="18" viewBox="0 0 18 18" fill="none" xmlns="http://www.w3.org/2000/svg">
<g id="user-check" clip-path="url(#clip0_0_1653)">
<path id="Vector" d="M11.25 8.25C11.9213 8.25 12.5652 8.51668 13.0399 8.99139C13.5146 9.46609 13.7812 10.1099 13.7812 10.7812" stroke="#1A1C20" stroke-width="2" stroke-linecap="round" stroke-linejoin="round"/>
<path id="Vector_2" d="M12 5.25C13.1935 5.25 14.3381 5.72411 15.182 6.56802C16.0259 7.41193 16.5 8.55653 16.5 9.75" stroke="#1A1C20" stroke-width="2" stroke-linecap="round" stroke-linejoin="round"/>
<path id="Vector_3" d="M12 15.75V14.25C12 13.4544 11.6839 12.6913 11.1213 12.1287C10.5587 11.5661 9.79565 11.25 9 11.25H3.75C2.95435 11.25 2.19129 11.5661 1.62868 12.1287C1.06607 12.6913 0.75 13.4544 0.75 14.25V15.75" stroke="#1A1C20" stroke-width="2" stroke-linecap="round" stroke-linejoin="round"/>
<path id="Vector_4" d="M6.375 8.25C8.03185 8.25 9.375 6.90685 9.375 5.25C9.375 3.59315 8.03185 2.25 6.375 2.25C4.71815 2.25 3.375 3.59315 3.375 5.25C3.375 6.90685 4.71815 8.25 6.375 8.25Z" stroke="#1A1C20" stroke-width="2" stroke-linecap="round" stroke-linejoin="round"/>
</g>
<defs>
<clipPath id="clip0_0_1653">
<rect width="18" height="18" fill="white"/>
</clipPath>
</defs>
</svg>
