<svg width="16" height="16" viewBox="0 0 16 16" fill="none" xmlns="http://www.w3.org/2000/svg">
<g clip-path="url(#clip0_0_102)">
<path d="M11.3333 1.33334H4.66659C2.82564 1.33334 1.33325 2.82572 1.33325 4.66667V11.3333C1.33325 13.1743 2.82564 14.6667 4.66659 14.6667H11.3333C13.1742 14.6667 14.6666 13.1743 14.6666 11.3333V4.66667C14.6666 2.82572 13.1742 1.33334 11.3333 1.33334Z" stroke="#FFC82C" stroke-linecap="round" stroke-linejoin="round"/>
<path d="M10.6666 7.58003C10.7488 8.13486 10.6541 8.70151 10.3957 9.19937C10.1374 9.69724 9.72865 10.101 9.22764 10.3531C8.72662 10.6053 8.15885 10.6931 7.60508 10.604C7.0513 10.5149 6.53973 10.2534 6.14311 9.85681C5.7465 9.46019 5.48504 8.94861 5.39593 8.39484C5.30682 7.84107 5.3946 7.27329 5.64677 6.77228C5.89894 6.27127 6.30268 5.86253 6.80054 5.60419C7.29841 5.34586 7.86506 5.25109 8.41989 5.33336C8.98583 5.41729 9.50979 5.68101 9.91435 6.08557C10.3189 6.49013 10.5826 7.01408 10.6666 7.58003Z" stroke="#FFC82C" stroke-linecap="round" stroke-linejoin="round"/>
<path d="M11.6666 4.33334H11.674" stroke="#FFC82C" stroke-linecap="round" stroke-linejoin="round"/>
</g>
<defs>
<clipPath id="clip0_0_102">
<rect width="16" height="16" fill="white"/>
</clipPath>
</defs>
</svg>
