<svg width="16" height="20" viewBox="0 0 16 20" fill="none" xmlns="http://www.w3.org/2000/svg">
<path d="M15.4 8.2C15.4 13.8 8.2 18.6 8.2 18.6C8.2 18.6 1 13.8 1 8.2C1 6.29044 1.75857 4.45909 3.10883 3.10883C4.45909 1.75857 6.29044 1 8.2 1C10.1096 1 11.9409 1.75857 13.2912 3.10883C14.6414 4.45909 15.4 6.29044 15.4 8.2Z" stroke="#8492A6" stroke-linecap="round" stroke-linejoin="round"/>
<path d="M8.19996 10.6C9.52544 10.6 10.6 9.52553 10.6 8.20005C10.6 6.87457 9.52544 5.80005 8.19996 5.80005C6.87447 5.80005 5.79996 6.87457 5.79996 8.20005C5.79996 9.52553 6.87447 10.6 8.19996 10.6Z" stroke="#8492A6" stroke-linecap="round" stroke-linejoin="round"/>
</svg>
