<svg width="26" height="26" viewBox="0 0 26 26" fill="none" xmlns="http://www.w3.org/2000/svg">
<g filter="url(#filter0_d_0_163)">
<path d="M20.9105 12.9361V15.3361C20.9114 15.5589 20.8658 15.7794 20.7765 15.9836C20.6872 16.1877 20.5563 16.3709 20.3922 16.5216C20.228 16.6722 20.0342 16.7869 19.8231 16.8582C19.612 16.9296 19.3884 16.9561 19.1665 16.9361C16.7048 16.6686 14.3401 15.8274 12.2625 14.4801C10.3296 13.2518 8.69076 11.613 7.46249 9.68008C6.11048 7.59304 5.26909 5.21687 5.00649 2.74408C4.9865 2.52285 5.01279 2.29989 5.08369 2.08938C5.15459 1.87887 5.26855 1.68543 5.41831 1.52137C5.56806 1.35732 5.75034 1.22625 5.95353 1.1365C6.15671 1.04675 6.37637 1.00029 6.59849 1.00008H8.99849C9.38674 0.996256 9.76313 1.13374 10.0575 1.3869C10.3519 1.64007 10.5442 1.99163 10.5985 2.37608C10.6998 3.14413 10.8877 3.89826 11.1585 4.62408C11.2661 4.91042 11.2894 5.22161 11.2256 5.52078C11.1618 5.81995 11.0136 6.09457 10.7985 6.31208L9.78249 7.32808C10.9213 9.33091 12.5797 10.9892 14.5825 12.1281L15.5985 11.1121C15.816 10.897 16.0906 10.7488 16.3898 10.685C16.689 10.6211 17.0002 10.6444 17.2865 10.7521C18.0123 11.0229 18.7664 11.2108 19.5345 11.3121C19.9231 11.3669 20.278 11.5626 20.5317 11.8621C20.7854 12.1615 20.9202 12.5437 20.9105 12.9361Z" stroke="#8492A6" stroke-linecap="round" stroke-linejoin="round" shape-rendering="crispEdges"/>
</g>
<defs>
<filter id="filter0_d_0_163" x="0.5" y="0.5" width="24.911" height="24.9426" filterUnits="userSpaceOnUse" color-interpolation-filters="sRGB">
<feFlood flood-opacity="0" result="BackgroundImageFix"/>
<feColorMatrix in="SourceAlpha" type="matrix" values="0 0 0 0 0 0 0 0 0 0 0 0 0 0 0 0 0 0 127 0" result="hardAlpha"/>
<feOffset dy="4"/>
<feGaussianBlur stdDeviation="2"/>
<feComposite in2="hardAlpha" operator="out"/>
<feColorMatrix type="matrix" values="0 0 0 0 0 0 0 0 0 0 0 0 0 0 0 0 0 0 0.25 0"/>
<feBlend mode="normal" in2="BackgroundImageFix" result="effect1_dropShadow_0_163"/>
<feBlend mode="normal" in="SourceGraphic" in2="effect1_dropShadow_0_163" result="shape"/>
</filter>
</defs>
</svg>
