<svg width="16" height="16" viewBox="0 0 16 16" fill="none" xmlns="http://www.w3.org/2000/svg">
<path d="M15.0268 4.28001C14.9476 3.96361 14.7863 3.67372 14.5592 3.43961C14.3321 3.2055 14.0473 3.03546 13.7334 2.94667C12.5868 2.66667 8.00009 2.66667 8.00009 2.66667C8.00009 2.66667 3.41343 2.66667 2.26676 2.97334C1.95293 3.06213 1.66808 3.23217 1.44099 3.46628C1.21391 3.70039 1.05262 3.99028 0.97343 4.30667C0.763573 5.47038 0.66092 6.65088 0.666763 7.83334C0.659282 9.0247 0.761941 10.2142 0.97343 11.3867C1.06074 11.6932 1.22563 11.9721 1.45219 12.1963C1.67875 12.4205 1.95931 12.5825 2.26676 12.6667C3.41343 12.9733 8.00009 12.9733 8.00009 12.9733C8.00009 12.9733 12.5868 12.9733 13.7334 12.6667C14.0473 12.5779 14.3321 12.4078 14.5592 12.1737C14.7863 11.9396 14.9476 11.6497 15.0268 11.3333C15.235 10.1784 15.3376 9.0069 15.3334 7.83334C15.3409 6.64198 15.2382 5.45247 15.0268 4.28001V4.28001Z" stroke="#FFC82C" stroke-linecap="round" stroke-linejoin="round"/>
<path d="M6.5 10.0133L10.3333 7.83333L6.5 5.65333V10.0133Z" stroke="#FFC82C" stroke-linecap="round" stroke-linejoin="round"/>
</svg>
